# Blender 4.5.1 LTS
# www.blender.org
mtllib chair.mtl
o Cube
v 0.205000 0.175000 -0.175000
v 0.205000 0.225000 0.175000
v -0.205000 0.175000 -0.175000
v -0.205000 0.225000 0.175000
v 0.205000 0.225000 -0.225000
v -0.205000 0.225000 -0.225000
v -0.205000 0.675000 -0.275000
v 0.205000 0.675000 -0.275000
v -0.205000 0.175000 0.225000
v 0.205000 0.175000 0.225000
v 0.225000 0.175000 -0.175000
v 0.225000 0.225000 0.175000
v 0.225000 0.225000 -0.225000
v 0.225000 0.675000 -0.275000
v 0.225000 0.175000 0.225000
v -0.225000 0.175000 -0.175000
v -0.225000 0.225000 0.175000
v -0.225000 0.225000 -0.225000
v -0.225000 0.675000 -0.275000
v -0.225000 0.175000 0.225000
v 0.205000 0.175000 0.135000
v 0.205000 0.135000 0.175000
v 0.205000 0.169641 0.155000
v 0.205000 0.155000 0.169641
v -0.205000 0.135000 0.175000
v -0.205000 0.175000 0.135000
v -0.205000 0.155000 0.169641
v -0.205000 0.169641 0.155000
v -0.205000 0.225000 0.185000
v -0.205000 0.185000 0.225000
v -0.205000 0.219641 0.205000
v -0.205000 0.205000 0.219641
v 0.205000 0.185000 0.225000
v 0.205000 0.225000 0.185000
v 0.205000 0.205000 0.219641
v 0.205000 0.219641 0.205000
v 0.225000 0.135000 0.175000
v 0.225000 0.175000 0.135000
v 0.225000 0.215000 0.175000
v 0.225000 0.175000 0.215000
v 0.225000 0.155000 0.169641
v 0.225000 0.169641 0.155000
v 0.225000 0.225000 0.185000
v 0.225000 0.185000 0.225000
v 0.225000 0.219641 0.205000
v 0.225000 0.205000 0.219641
v -0.225000 0.175000 0.135000
v -0.225000 0.135000 0.175000
v -0.225000 0.175000 0.215000
v -0.225000 0.215000 0.175000
v -0.225000 0.169641 0.155000
v -0.225000 0.155000 0.169641
v -0.225000 0.185000 0.225000
v -0.225000 0.225000 0.185000
v -0.225000 0.205000 0.219641
v -0.225000 0.219641 0.205000
v 0.205000 0.265000 -0.175000
v 0.205000 0.225000 -0.135000
v 0.205000 0.245000 -0.169641
v 0.205000 0.230359 -0.155000
v -0.205000 0.265000 -0.175000
v -0.205000 0.225000 -0.135000
v -0.205000 0.245000 -0.169641
v -0.205000 0.230359 -0.155000
v 0.225000 0.265000 -0.175000
v 0.225000 0.225000 -0.135000
v 0.225000 0.185000 -0.175000
v 0.225000 0.225000 -0.215000
v 0.225000 0.245000 -0.169641
v 0.225000 0.230359 -0.155000
v -0.225000 0.225000 -0.135000
v -0.225000 0.265000 -0.175000
v -0.225000 0.225000 -0.215000
v -0.225000 0.185000 -0.175000
v -0.225000 0.230359 -0.155000
v -0.225000 0.245000 -0.169641
v -0.205000 0.665185 -0.253085
v -0.205000 0.675000 -0.265000
v 0.205000 0.665185 -0.253085
v 0.205000 0.675000 -0.265000
v 0.225000 0.675000 -0.265000
v 0.225000 0.665185 -0.253085
v -0.225000 0.665185 -0.253085
v -0.225000 0.675000 -0.265000
v -0.205000 -0.225000 0.235000
v -0.205000 -0.215095 0.223624
v 0.205000 -0.215095 0.223624
v 0.205000 -0.225000 0.235000
v -0.205000 -0.215077 0.273760
v -0.205000 -0.225000 0.265000
v 0.205000 -0.215077 0.273760
v 0.205000 -0.225000 0.265000
v 0.225000 -0.225000 0.235000
v 0.225000 -0.215095 0.223624
v 0.225000 -0.215077 0.273760
v 0.225000 -0.225000 0.265000
v -0.225000 -0.215095 0.223624
v -0.225000 -0.225000 0.235000
v -0.225000 -0.225000 0.265000
v -0.225000 -0.215077 0.273760
v 0.224504 -0.215077 -0.223760
v 0.225000 -0.225000 -0.235000
v -0.225000 -0.225000 -0.235000
v -0.224504 -0.215077 -0.223760
v 0.225000 -0.225000 -0.265000
v 0.224504 -0.215077 -0.273760
v -0.224504 -0.215077 -0.273760
v -0.225000 -0.225000 -0.265000
v -0.205000 0.175000 -0.185000
v -0.205000 0.215000 -0.225000
v -0.205425 0.175000 -0.225000
v -0.206982 0.135358 -0.229955
v -0.205000 0.180359 -0.205000
v -0.205000 0.195000 -0.219641
v -0.225000 0.215000 -0.225000
v -0.225000 0.175000 -0.185000
v -0.225000 0.195000 -0.219641
v -0.225000 0.180359 -0.205000
v 0.205000 0.215000 -0.225000
v 0.205000 0.175000 -0.185000
v 0.206982 0.135358 -0.229955
v 0.205425 0.175000 -0.225000
v 0.205000 0.195000 -0.219641
v 0.205000 0.180359 -0.205000
v 0.225000 0.175000 -0.185000
v 0.225000 0.215000 -0.225000
v 0.225000 0.180359 -0.205000
v 0.225000 0.195000 -0.219641
vn -0.0000 -0.1104 -0.9939
vn 1.0000 -0.0000 -0.0000
vn -1.0000 -0.0000 -0.0000
vn -0.0000 -0.9659 -0.2588
vn -0.0000 -0.7071 -0.7071
vn -0.0000 -0.2588 -0.9659
vn -0.0000 0.9659 0.2588
vn -0.0000 0.7071 0.7071
vn -0.0000 0.2588 0.9659
vn -0.0000 -1.0000 -0.0000
vn -0.0000 -0.0000 1.0000
vn -0.0000 1.0000 -0.0000
vn -0.0000 0.7719 0.6358
vn -0.0000 0.1915 0.9815
vn -0.0000 -0.6618 0.7497
vn -0.0000 -0.7542 -0.6567
vn -0.0000 -0.1376 -0.9905
vn -0.0000 0.1240 0.9923
vn -0.0000 -0.7497 0.6618
vn -0.0000 -0.6618 -0.7497
vn -0.0000 -0.1240 0.9923
vn -0.9994 0.0323 0.0142
vn -0.9988 0.0499 -0.0000
vn -0.0000 -0.0000 -1.0000
vn 0.9994 0.0323 0.0142
vn 0.9988 0.0499 -0.0000
vn -0.0000 0.1240 -0.9923
vt 0.727778 0.560731
vt 0.272222 0.560731
vt 0.272222 1.060731
vt 0.727778 1.060731
vt 0.750000 1.060731
vt 0.750000 0.560731
vt 0.250000 0.560731
vt 0.250000 1.060731
vt 0.298215 0.460731
vt 0.304170 0.482953
vt 0.320438 0.499221
vt 0.342660 0.505175
vt 0.298215 0.549619
vt 0.253771 0.505175
vt 0.272222 0.342660
vt 0.727778 0.342660
vt 0.727778 0.320438
vt 0.272222 0.320438
vt 0.727778 0.304170
vt 0.272222 0.304170
vt 0.272222 0.482953
vt 0.727778 0.482953
vt 0.727778 0.460731
vt 0.272222 0.460731
vt 0.727778 0.287104
vt 0.272222 0.287104
vt 0.272222 0.264882
vt 0.727778 0.264882
vt 0.272222 0.248614
vt 0.727778 0.248614
vt 0.727778 0.538508
vt 0.272222 0.538508
vt 0.272222 0.516286
vt 0.727778 0.516286
vt 0.250000 0.460731
vt 0.250000 0.482953
vt 0.250000 0.304170
vt 0.250000 0.320438
vt 0.250000 0.342660
vt 0.750000 0.342660
vt 0.750000 0.320438
vt 0.750000 0.304170
vt 0.750000 0.482953
vt 0.750000 0.460731
vt 0.750000 0.516286
vt 0.750000 0.538508
vt 0.750000 0.248614
vt 0.750000 0.264882
vt 0.750000 0.287104
vt 0.250000 0.516286
vt 0.250000 0.538508
vt 0.250000 0.248614
vt 0.250000 0.264882
vt 0.250000 0.287104
vt 0.272222 0.687104
vt 0.727778 0.687104
vt 0.750000 0.687104
vt 0.250000 0.687104
vt 0.272222 0.505175
vt 0.250000 0.505175
vt 0.727778 0.505175
vt 0.727778 0.298215
vt 0.272222 0.298215
vt 0.250000 0.298215
vt 0.750000 0.505175
vt 0.750000 0.298215
vt 0.298215 0.560731
vt 0.287104 0.560731
vt 0.264882 0.554776
vt 0.248614 0.538508
vt 0.242660 0.516286
vt 0.242660 0.505175
vt 0.687104 0.605175
vt 0.681150 0.582953
vt 0.664882 0.566685
vt 0.642660 0.560731
vt 0.687104 0.516286
vt 0.731549 0.560731
vt 0.750000 0.605175
vt 0.727778 0.605175
vt 0.727778 0.582953
vt 0.750000 0.582953
vt 0.750000 0.681150
vt 0.727778 0.681150
vt 0.727778 0.664882
vt 0.750000 0.664882
vt 0.727778 0.642660
vt 0.750000 0.642660
vt 0.272222 0.642660
vt 0.272222 0.664882
vt 0.272222 0.681150
vt 0.272222 0.582953
vt 0.272222 0.605175
vt 0.250000 0.642660
vt 0.250000 0.664882
vt 0.250000 0.681150
vt 0.250000 0.582953
vt 0.250000 0.605175
vt 0.687104 0.505175
vt 0.272222 0.787104
vt 0.250000 0.787104
vt 0.250000 0.773865
vt 0.272222 0.773865
vt 0.727778 0.773865
vt 0.727778 0.787104
vt 0.750000 0.787104
vt 0.750000 0.773865
vt 0.272222 1.049825
vt 0.250000 1.049825
vt 0.727778 0.798215
vt 0.272222 0.798215
vt 0.250000 0.798215
vt 0.727778 1.049825
vt 0.750000 0.798215
vt 0.750000 1.049825
vt 0.742660 0.560731
vt 0.798215 1.060731
vt 0.787104 1.060731
vt 0.773865 1.049825
vt 0.727778 0.060731
vt 0.750000 0.060731
vt 0.750000 0.071756
vt 0.727778 0.071756
vt 0.272222 0.244188
vt 0.727778 0.244188
vt 0.727778 0.231549
vt 0.272222 0.231549
vt 0.272222 0.060731
vt 0.272222 0.071756
vt 0.750000 0.231549
vt 0.750000 0.244188
vt 0.250000 0.231549
vt 0.250000 0.244188
vt 0.250000 0.071756
vt 0.250000 0.060731
vt 0.727778 0.071736
vt 0.272222 0.071736
vt 0.727778 0.198215
vt 0.272222 0.198215
vt 0.250000 0.198215
vt 0.250000 0.071736
vt 0.750000 0.198215
vt 0.750000 0.071736
vt 0.188482 0.071756
vt 0.198215 0.060731
vt 0.231549 0.060731
vt 0.244188 0.071736
vt 0.749449 0.741282
vt 0.250551 0.741282
vt 0.250000 0.753771
vt 0.750000 0.753771
vt 0.250551 0.071756
vt 0.749449 0.071756
vt 0.698215 0.505175
vt 0.720438 0.511129
vt 0.736705 0.527397
vt 0.742660 0.549619
vt 0.742660 0.505175
vt 0.748166 0.461128
vt 0.250000 0.549619
vt 0.272222 0.549619
vt 0.272222 0.527397
vt 0.250000 0.527397
vt 0.250000 0.736705
vt 0.272222 0.736705
vt 0.272222 0.720438
vt 0.250000 0.720438
vt 0.272222 0.698215
vt 0.250000 0.698215
vt 0.796837 0.071756
vt 0.787104 0.060731
vt 0.753771 0.060731
vt 0.741282 0.071756
vt 0.727778 0.549619
vt 0.750000 0.549619
vt 0.750000 0.527397
vt 0.727778 0.527397
vt 0.727778 0.736705
vt 0.750000 0.736705
vt 0.750000 0.720438
vt 0.727778 0.720438
vt 0.750000 0.698215
vt 0.727778 0.698215
vt 0.271750 0.505175
vt 0.728250 0.505175
vt 0.270020 0.461128
vt 0.729980 0.461128
s 0
usemtl Material
f 5/1/1 6/2/1 7/3/1 8/4/1
f 5/1/1 8/4/1 14/5/1 13/6/1
f 7/3/1 6/2/1 18/7/1 19/8/1
f 37/9/2 41/10/2 42/11/2 38/12/2 39/13/2 40/14/2
f 47/12/3 51/11/3 52/10/3 48/9/3 49/14/3 50/13/3
f 26/15/4 21/16/4 23/17/4 28/18/4
f 28/18/5 23/17/5 24/19/5 27/20/5
f 27/21/6 24/22/6 22/23/6 25/24/6
f 34/25/7 29/26/7 31/27/7 36/28/7
f 36/28/8 31/27/8 32/29/8 35/30/8
f 35/31/9 32/32/9 30/33/9 33/34/9
f 25/24/6 48/35/6 52/36/6 27/21/6
f 27/20/5 52/37/5 51/38/5 28/18/5
f 28/18/4 51/38/4 47/39/4 26/15/4
f 21/16/4 38/40/4 42/41/4 23/17/4
f 23/17/5 42/41/5 41/42/5 24/19/5
f 24/22/6 41/43/6 37/44/6 22/23/6
f 33/34/9 44/45/9 46/46/9 35/31/9
f 35/30/8 46/47/8 45/48/8 36/28/8
f 36/28/7 45/48/7 43/49/7 34/25/7
f 53/50/9 30/33/9 32/32/9 55/51/9
f 55/52/8 32/29/8 31/27/8 56/53/8
f 56/53/7 31/27/7 29/26/7 54/54/7
f 3/55/10 1/56/10 21/16/10 26/15/10
f 21/16/10 1/56/10 11/57/10 38/40/10
f 3/55/10 26/15/10 47/39/10 16/58/10
f 9/59/11 30/33/11 53/50/11 20/60/11
f 10/61/11 33/34/11 30/33/11 9/59/11
f 2/62/12 4/63/12 29/26/12 34/25/12
f 29/26/12 4/63/12 17/64/12 54/54/12
f 33/34/11 10/61/11 15/65/11 44/45/11
f 2/62/12 34/25/12 43/49/12 12/66/12
f 40/14/2 39/13/2 12/67/2 43/68/2 45/69/2 46/70/2 44/71/2 15/72/2
f 17/67/3 50/13/3 49/14/3 20/72/3 53/71/3 55/70/3 56/69/3 54/68/3
f 65/73/2 69/74/2 70/75/2 66/76/2 67/77/2 68/78/2
f 71/76/3 75/75/3 76/74/3 72/73/3 73/78/3 74/77/3
f 65/79/9 57/80/9 59/81/9 69/82/9
f 69/83/8 59/84/8 60/85/8 70/86/8
f 70/86/7 60/85/7 58/87/7 66/88/7
f 62/89/7 58/87/7 60/85/7 64/90/7
f 64/90/8 60/85/8 59/84/8 63/91/8
f 63/92/9 59/81/9 57/80/9 61/93/9
f 71/94/7 62/89/7 64/90/7 75/95/7
f 75/95/8 64/90/8 63/91/8 76/96/8
f 76/97/9 63/92/9 61/93/9 72/98/9
f 58/87/12 2/62/12 12/66/12 66/88/12
f 58/87/12 62/89/12 4/63/12 2/62/12
f 4/63/12 62/89/12 71/94/12 17/64/12
f 11/99/2 67/77/2 66/76/2 12/67/2 39/13/2 38/12/2
f 47/12/3 50/13/3 17/67/3 71/76/3 74/77/3 16/99/3
f 78/100/13 84/101/13 83/102/13 77/103/13
f 77/103/13 79/104/13 80/105/13 78/100/13
f 81/106/13 80/105/13 79/104/13 82/107/13
f 61/93/14 77/108/14 83/109/14 72/98/14
f 78/100/12 80/105/12 8/110/12 7/111/12
f 78/100/12 7/111/12 19/112/12 84/101/12
f 61/93/14 57/80/14 79/113/14 77/108/14
f 8/110/12 80/105/12 81/106/12 14/114/12
f 79/113/14 57/80/14 65/79/14 82/115/14
f 65/73/2 68/78/2 13/116/2 14/117/2 81/118/2 82/119/2
f 18/116/3 73/78/3 72/73/3 83/119/3 84/118/3 19/117/3
f 92/120/15 96/121/15 95/122/15 91/123/15
f 86/124/16 87/125/16 88/126/16 85/127/16
f 90/128/15 92/120/15 91/123/15 89/129/15
f 93/130/16 88/126/16 87/125/16 94/131/16
f 85/127/16 98/132/16 97/133/16 86/124/16
f 89/129/15 100/134/15 99/135/15 90/128/15
f 25/24/17 22/23/17 87/136/17 86/137/17
f 85/127/10 88/126/10 92/138/10 90/139/10
f 85/127/10 90/139/10 99/140/10 98/132/10
f 25/24/17 86/137/17 97/141/17 48/35/17
f 92/138/10 88/126/10 93/130/10 96/142/10
f 87/136/17 22/23/17 37/44/17 94/143/17
f 10/61/18 9/59/18 89/129/18 91/123/18
f 89/129/18 9/59/18 20/60/18 100/134/18
f 10/61/18 91/123/18 95/122/18 15/65/18
f 37/9/2 40/14/2 15/72/2 95/144/2 96/145/2 93/146/2 94/147/2
f 20/72/3 49/14/3 48/9/3 97/147/3 98/146/3 99/145/3 100/144/3
f 101/148/19 104/149/19 103/150/19 102/151/19
f 105/121/20 108/135/20 107/152/20 106/153/20
f 1/61/21 3/59/21 104/152/21 101/153/21
f 102/151/10 103/150/10 108/101/10 105/106/10
f 109/154/22 113/155/22 114/156/22 110/157/22 111/158/22 112/159/22
f 115/160/6 110/161/6 114/162/6 117/163/6
f 117/164/5 114/165/5 113/166/5 118/167/5
f 118/167/4 113/166/4 109/168/4 116/169/4
f 109/168/10 3/55/10 16/58/10 116/169/10
f 3/99/23 109/154/23 112/159/23 107/170/23 108/171/23 103/172/23 104/173/23
f 6/2/24 110/161/24 115/160/24 18/7/24
f 16/99/3 74/77/3 73/78/3 18/116/3 115/157/3 117/156/3 118/155/3 116/154/3
f 119/157/25 123/156/25 124/155/25 120/154/25 121/159/25 122/158/25
f 119/174/6 126/175/6 128/176/6 123/177/6
f 123/178/5 128/179/5 127/180/5 124/181/5
f 124/181/4 127/180/4 125/182/4 120/183/4
f 111/184/24 110/161/24 6/2/24 5/1/24 119/174/24 122/185/24
f 119/174/24 5/1/24 13/6/24 126/175/24
f 121/159/26 120/154/26 1/99/26 101/173/26 102/172/26 105/171/26 106/170/26
f 1/56/10 120/183/10 125/182/10 11/57/10
f 112/186/27 111/184/27 122/185/27 121/187/27 106/153/27 107/152/27
f 68/78/2 67/77/2 11/99/2 125/154/2 127/155/2 128/156/2 126/157/2 13/116/2
